<svg width="40" height="40" viewBox="0 0 40 40" fill="none" xmlns="http://www.w3.org/2000/svg">
<g clip-path="url(#clip0_222_51)">
<g filter="url(#filter0_f_222_51)">
<path d="M20 28.3337C20.4722 28.3337 20.868 28.1739 21.1875 27.8545C21.5069 27.535 21.6666 27.1392 21.6666 26.667C21.6666 26.1948 21.5069 25.7989 21.1875 25.4795C20.868 25.16 20.4722 25.0003 20 25.0003C19.5278 25.0003 19.1319 25.16 18.8125 25.4795C18.493 25.7989 18.3333 26.1948 18.3333 26.667C18.3333 27.1392 18.493 27.535 18.8125 27.8545C19.1319 28.1739 19.5278 28.3337 20 28.3337ZM20 21.667C20.4722 21.667 20.868 21.5073 21.1875 21.1878C21.5069 20.8684 21.6666 20.4725 21.6666 20.0003C21.6666 19.5281 21.5069 19.1323 21.1875 18.8128C20.868 18.4934 20.4722 18.3337 20 18.3337C19.5278 18.3337 19.1319 18.4934 18.8125 18.8128C18.493 19.1323 18.3333 19.5281 18.3333 20.0003C18.3333 20.4725 18.493 20.8684 18.8125 21.1878C19.1319 21.5073 19.5278 21.667 20 21.667ZM20 15.0003C20.4722 15.0003 20.868 14.8406 21.1875 14.5212C21.5069 14.2017 21.6666 13.8059 21.6666 13.3337C21.6666 12.8614 21.5069 12.4656 21.1875 12.1462C20.868 11.8267 20.4722 11.667 20 11.667C19.5278 11.667 19.1319 11.8267 18.8125 12.1462C18.493 12.4656 18.3333 12.8614 18.3333 13.3337C18.3333 13.8059 18.493 14.2017 18.8125 14.5212C19.1319 14.8406 19.5278 15.0003 20 15.0003ZM33.3333 33.3337H6.66665C5.74998 33.3337 4.96526 33.0073 4.31248 32.3545C3.6597 31.7017 3.33331 30.917 3.33331 30.0003V23.3337C4.24998 23.3337 5.0347 23.0073 5.68748 22.3545C6.34026 21.7017 6.66665 20.917 6.66665 20.0003C6.66665 19.0837 6.34026 18.2989 5.68748 17.6462C5.0347 16.9934 4.24998 16.667 3.33331 16.667V10.0003C3.33331 9.08366 3.6597 8.29894 4.31248 7.64616C4.96526 6.99338 5.74998 6.66699 6.66665 6.66699H33.3333C34.25 6.66699 35.0347 6.99338 35.6875 7.64616C36.3403 8.29894 36.6666 9.08366 36.6666 10.0003V16.667C35.75 16.667 34.9653 16.9934 34.3125 17.6462C33.6597 18.2989 33.3333 19.0837 33.3333 20.0003C33.3333 20.917 33.6597 21.7017 34.3125 22.3545C34.9653 23.0073 35.75 23.3337 36.6666 23.3337V30.0003C36.6666 30.917 36.3403 31.7017 35.6875 32.3545C35.0347 33.0073 34.25 33.3337 33.3333 33.3337ZM33.3333 30.0003V25.7503C32.3055 25.1392 31.493 24.3267 30.8958 23.3128C30.2986 22.2989 30 21.1948 30 20.0003C30 18.8059 30.2986 17.7017 30.8958 16.6878C31.493 15.6739 32.3055 14.8614 33.3333 14.2503V10.0003H6.66665V14.2503C7.69442 14.8614 8.50692 15.6739 9.10415 16.6878C9.70137 17.7017 9.99998 18.8059 9.99998 20.0003C9.99998 21.1948 9.70137 22.2989 9.10415 23.3128C8.50692 24.3267 7.69442 25.1392 6.66665 25.7503V30.0003H33.3333Z" fill="#F7F7F7"/>
</g>
</g>
<path d="M20 28.3337C20.4722 28.3337 20.868 28.1739 21.1875 27.8545C21.5069 27.535 21.6666 27.1392 21.6666 26.667C21.6666 26.1948 21.5069 25.7989 21.1875 25.4795C20.868 25.16 20.4722 25.0003 20 25.0003C19.5278 25.0003 19.1319 25.16 18.8125 25.4795C18.493 25.7989 18.3333 26.1948 18.3333 26.667C18.3333 27.1392 18.493 27.535 18.8125 27.8545C19.1319 28.1739 19.5278 28.3337 20 28.3337ZM20 21.667C20.4722 21.667 20.868 21.5073 21.1875 21.1878C21.5069 20.8684 21.6666 20.4725 21.6666 20.0003C21.6666 19.5281 21.5069 19.1323 21.1875 18.8128C20.868 18.4934 20.4722 18.3337 20 18.3337C19.5278 18.3337 19.1319 18.4934 18.8125 18.8128C18.493 19.1323 18.3333 19.5281 18.3333 20.0003C18.3333 20.4725 18.493 20.8684 18.8125 21.1878C19.1319 21.5073 19.5278 21.667 20 21.667ZM20 15.0003C20.4722 15.0003 20.868 14.8406 21.1875 14.5212C21.5069 14.2017 21.6666 13.8059 21.6666 13.3337C21.6666 12.8614 21.5069 12.4656 21.1875 12.1462C20.868 11.8267 20.4722 11.667 20 11.667C19.5278 11.667 19.1319 11.8267 18.8125 12.1462C18.493 12.4656 18.3333 12.8614 18.3333 13.3337C18.3333 13.8059 18.493 14.2017 18.8125 14.5212C19.1319 14.8406 19.5278 15.0003 20 15.0003ZM33.3333 33.3337H6.66665C5.74998 33.3337 4.96526 33.0073 4.31248 32.3545C3.6597 31.7017 3.33331 30.917 3.33331 30.0003V23.3337C4.24998 23.3337 5.0347 23.0073 5.68748 22.3545C6.34026 21.7017 6.66665 20.917 6.66665 20.0003C6.66665 19.0837 6.34026 18.2989 5.68748 17.6462C5.0347 16.9934 4.24998 16.667 3.33331 16.667V10.0003C3.33331 9.08366 3.6597 8.29894 4.31248 7.64616C4.96526 6.99338 5.74998 6.66699 6.66665 6.66699H33.3333C34.25 6.66699 35.0347 6.99338 35.6875 7.64616C36.3403 8.29894 36.6666 9.08366 36.6666 10.0003V16.667C35.75 16.667 34.9653 16.9934 34.3125 17.6462C33.6597 18.2989 33.3333 19.0837 33.3333 20.0003C33.3333 20.917 33.6597 21.7017 34.3125 22.3545C34.9653 23.0073 35.75 23.3337 36.6666 23.3337V30.0003C36.6666 30.917 36.3403 31.7017 35.6875 32.3545C35.0347 33.0073 34.25 33.3337 33.3333 33.3337ZM33.3333 30.0003V25.7503C32.3055 25.1392 31.493 24.3267 30.8958 23.3128C30.2986 22.2989 30 21.1948 30 20.0003C30 18.8059 30.2986 17.7017 30.8958 16.6878C31.493 15.6739 32.3055 14.8614 33.3333 14.2503V10.0003H6.66665V14.2503C7.69442 14.8614 8.50692 15.6739 9.10415 16.6878C9.70137 17.7017 9.99998 18.8059 9.99998 20.0003C9.99998 21.1948 9.70137 22.2989 9.10415 23.3128C8.50692 24.3267 7.69442 25.1392 6.66665 25.7503V30.0003H33.3333Z" fill="#00FFFF"/>
<defs>
<filter id="filter0_f_222_51" x="-0.666687" y="2.66699" width="41.3333" height="34.667" filterUnits="userSpaceOnUse" color-interpolation-filters="sRGB">
<feFlood flood-opacity="0" result="BackgroundImageFix"/>
<feBlend mode="normal" in="SourceGraphic" in2="BackgroundImageFix" result="shape"/>
<feGaussianBlur stdDeviation="2" result="effect1_foregroundBlur_222_51"/>
</filter>
<clipPath id="clip0_222_51">
<rect width="40" height="40" fill="white"/>
</clipPath>
</defs>
</svg>
