<svg width="36" height="38" viewBox="0 0 40 42" fill="none" xmlns="http://www.w3.org/2000/svg">
<g filter="url(#filter0_f_222_50)">
<path d="M19.8251 20.9997C20.7337 20.9997 21.5116 20.6733 22.1586 20.0205C22.8057 19.3677 23.1292 18.583 23.1292 17.6663C23.1292 16.7497 22.8057 15.965 22.1586 15.3122C21.5116 14.6594 20.7337 14.333 19.8251 14.333C18.9164 14.333 18.1385 14.6594 17.4915 15.3122C16.8444 15.965 16.5209 16.7497 16.5209 17.6663C16.5209 18.583 16.8444 19.3677 17.4915 20.0205C18.1385 20.6733 18.9164 20.9997 19.8251 20.9997ZM19.8251 33.2497C23.1843 30.1386 25.6762 27.3122 27.3008 24.7705C28.9253 22.2288 29.7376 19.9719 29.7376 17.9997C29.7376 14.9719 28.7808 12.4927 26.8671 10.5622C24.9534 8.63162 22.6061 7.66634 19.8251 7.66634C17.044 7.66634 14.6967 8.63162 12.783 10.5622C10.8694 12.4927 9.91252 14.9719 9.91252 17.9997C9.91252 19.9719 10.7248 22.2288 12.3493 24.7705C13.9739 27.3122 16.4658 30.1386 19.8251 33.2497ZM19.8251 37.6663C15.3919 33.8608 12.0809 30.3261 9.89187 27.0622C7.70285 23.7983 6.60834 20.7775 6.60834 17.9997C6.60834 13.833 7.93689 10.5136 10.594 8.04134C13.2511 5.56912 16.3281 4.33301 19.8251 4.33301C23.322 4.33301 26.399 5.56912 29.0561 8.04134C31.7132 10.5136 33.0418 13.833 33.0418 17.9997C33.0418 20.7775 31.9473 23.7983 29.7582 27.0622C27.5692 30.3261 24.2582 33.8608 19.8251 37.6663Z" fill="#F7F7F7"/>
</g>
<path d="M19.8251 20.9997C20.7337 20.9997 21.5116 20.6733 22.1586 20.0205C22.8057 19.3677 23.1292 18.583 23.1292 17.6663C23.1292 16.7497 22.8057 15.965 22.1586 15.3122C21.5116 14.6594 20.7337 14.333 19.8251 14.333C18.9164 14.333 18.1385 14.6594 17.4915 15.3122C16.8444 15.965 16.5209 16.7497 16.5209 17.6663C16.5209 18.583 16.8444 19.3677 17.4915 20.0205C18.1385 20.6733 18.9164 20.9997 19.8251 20.9997ZM19.8251 33.2497C23.1843 30.1386 25.6762 27.3122 27.3008 24.7705C28.9253 22.2288 29.7376 19.9719 29.7376 17.9997C29.7376 14.9719 28.7808 12.4927 26.8671 10.5622C24.9534 8.63162 22.6061 7.66634 19.8251 7.66634C17.044 7.66634 14.6967 8.63162 12.783 10.5622C10.8694 12.4927 9.91252 14.9719 9.91252 17.9997C9.91252 19.9719 10.7248 22.2288 12.3493 24.7705C13.9739 27.3122 16.4658 30.1386 19.8251 33.2497ZM19.8251 37.6663C15.3919 33.8608 12.0809 30.3261 9.89187 27.0622C7.70285 23.7983 6.60834 20.7775 6.60834 17.9997C6.60834 13.833 7.93689 10.5136 10.594 8.04134C13.2511 5.56912 16.3281 4.33301 19.8251 4.33301C23.322 4.33301 26.399 5.56912 29.0561 8.04134C31.7132 10.5136 33.0418 13.833 33.0418 17.9997C33.0418 20.7775 31.9473 23.7983 29.7582 27.0622C27.5692 30.3261 24.2582 33.8608 19.8251 37.6663Z" fill="#00FFFF"/>
<defs>
<filter id="filter0_f_222_50" x="-4" y="-3" width="47.6501" height="48" filterUnits="userSpaceOnUse" color-interpolation-filters="sRGB">
<feFlood flood-opacity="0" result="BackgroundImageFix"/>
<feBlend mode="normal" in="SourceGraphic" in2="BackgroundImageFix" result="shape"/>
<feGaussianBlur stdDeviation="2" result="effect1_foregroundBlur_222_50"/>
</filter>
</defs>
</svg>
