<svg width="40" height="42" viewBox="0 0 40 42" fill="none" xmlns="http://www.w3.org/2000/svg">
<g filter="url(#filter0_f_222_46)">
<path d="M8.26042 37.6668C7.35177 37.6668 6.57391 37.3404 5.92684 36.6877C5.27977 36.0349 4.95624 35.2502 4.95624 34.3335V11.0002C4.95624 10.0835 5.27977 9.29877 5.92684 8.646C6.57391 7.99322 7.35177 7.66683 8.26042 7.66683H9.91251V4.3335H13.2167V7.66683H26.4334V4.3335H29.7376V7.66683H31.3897C32.2983 7.66683 33.0762 7.99322 33.7232 8.646C34.3703 9.29877 34.6938 10.0835 34.6938 11.0002V34.3335C34.6938 35.2502 34.3703 36.0349 33.7232 36.6877C33.0762 37.3404 32.2983 37.6668 31.3897 37.6668H8.26042ZM8.26042 34.3335H31.3897V17.6668H8.26042V34.3335ZM8.26042 14.3335H31.3897V11.0002H8.26042V14.3335ZM19.825 24.3335C19.357 24.3335 18.9646 24.1738 18.6479 23.8543C18.3313 23.5349 18.173 23.1391 18.173 22.6668C18.173 22.1946 18.3313 21.7988 18.6479 21.4793C18.9646 21.1599 19.357 21.0002 19.825 21.0002C20.2931 21.0002 20.6855 21.1599 21.0022 21.4793C21.3188 21.7988 21.4771 22.1946 21.4771 22.6668C21.4771 23.1391 21.3188 23.5349 21.0022 23.8543C20.6855 24.1738 20.2931 24.3335 19.825 24.3335ZM13.2167 24.3335C12.7486 24.3335 12.3562 24.1738 12.0396 23.8543C11.7229 23.5349 11.5646 23.1391 11.5646 22.6668C11.5646 22.1946 11.7229 21.7988 12.0396 21.4793C12.3562 21.1599 12.7486 21.0002 13.2167 21.0002C13.6848 21.0002 14.0771 21.1599 14.3938 21.4793C14.7104 21.7988 14.8688 22.1946 14.8688 22.6668C14.8688 23.1391 14.7104 23.5349 14.3938 23.8543C14.0771 24.1738 13.6848 24.3335 13.2167 24.3335ZM26.4334 24.3335C25.9653 24.3335 25.5729 24.1738 25.2563 23.8543C24.9396 23.5349 24.7813 23.1391 24.7813 22.6668C24.7813 22.1946 24.9396 21.7988 25.2563 21.4793C25.5729 21.1599 25.9653 21.0002 26.4334 21.0002C26.9015 21.0002 27.2939 21.1599 27.6105 21.4793C27.9272 21.7988 28.0855 22.1946 28.0855 22.6668C28.0855 23.1391 27.9272 23.5349 27.6105 23.8543C27.2939 24.1738 26.9015 24.3335 26.4334 24.3335ZM19.825 31.0002C19.357 31.0002 18.9646 30.8404 18.6479 30.521C18.3313 30.2016 18.173 29.8057 18.173 29.3335C18.173 28.8613 18.3313 28.4654 18.6479 28.146C18.9646 27.8266 19.357 27.6668 19.825 27.6668C20.2931 27.6668 20.6855 27.8266 21.0022 28.146C21.3188 28.4654 21.4771 28.8613 21.4771 29.3335C21.4771 29.8057 21.3188 30.2016 21.0022 30.521C20.6855 30.8404 20.2931 31.0002 19.825 31.0002ZM13.2167 31.0002C12.7486 31.0002 12.3562 30.8404 12.0396 30.521C11.7229 30.2016 11.5646 29.8057 11.5646 29.3335C11.5646 28.8613 11.7229 28.4654 12.0396 28.146C12.3562 27.8266 12.7486 27.6668 13.2167 27.6668C13.6848 27.6668 14.0771 27.8266 14.3938 28.146C14.7104 28.4654 14.8688 28.8613 14.8688 29.3335C14.8688 29.8057 14.7104 30.2016 14.3938 30.521C14.0771 30.8404 13.6848 31.0002 13.2167 31.0002ZM26.4334 31.0002C25.9653 31.0002 25.5729 30.8404 25.2563 30.521C24.9396 30.2016 24.7813 29.8057 24.7813 29.3335C24.7813 28.8613 24.9396 28.4654 25.2563 28.146C25.5729 27.8266 25.9653 27.6668 26.4334 27.6668C26.9015 27.6668 27.2939 27.8266 27.6105 28.146C27.9272 28.4654 28.0855 28.8613 28.0855 29.3335C28.0855 29.8057 27.9272 30.2016 27.6105 30.521C27.2939 30.8404 26.9015 31.0002 26.4334 31.0002Z" fill="#F7F7F7"/>
</g>
<path d="M8.26042 37.6668C7.35177 37.6668 6.57391 37.3404 5.92684 36.6877C5.27977 36.0349 4.95624 35.2502 4.95624 34.3335V11.0002C4.95624 10.0835 5.27977 9.29877 5.92684 8.646C6.57391 7.99322 7.35177 7.66683 8.26042 7.66683H9.91251V4.3335H13.2167V7.66683H26.4334V4.3335H29.7376V7.66683H31.3897C32.2983 7.66683 33.0762 7.99322 33.7232 8.646C34.3703 9.29877 34.6938 10.0835 34.6938 11.0002V34.3335C34.6938 35.2502 34.3703 36.0349 33.7232 36.6877C33.0762 37.3404 32.2983 37.6668 31.3897 37.6668H8.26042ZM8.26042 34.3335H31.3897V17.6668H8.26042V34.3335ZM8.26042 14.3335H31.3897V11.0002H8.26042V14.3335ZM19.825 24.3335C19.357 24.3335 18.9646 24.1738 18.6479 23.8543C18.3313 23.5349 18.173 23.1391 18.173 22.6668C18.173 22.1946 18.3313 21.7988 18.6479 21.4793C18.9646 21.1599 19.357 21.0002 19.825 21.0002C20.2931 21.0002 20.6855 21.1599 21.0022 21.4793C21.3188 21.7988 21.4771 22.1946 21.4771 22.6668C21.4771 23.1391 21.3188 23.5349 21.0022 23.8543C20.6855 24.1738 20.2931 24.3335 19.825 24.3335ZM13.2167 24.3335C12.7486 24.3335 12.3562 24.1738 12.0396 23.8543C11.7229 23.5349 11.5646 23.1391 11.5646 22.6668C11.5646 22.1946 11.7229 21.7988 12.0396 21.4793C12.3562 21.1599 12.7486 21.0002 13.2167 21.0002C13.6848 21.0002 14.0771 21.1599 14.3938 21.4793C14.7104 21.7988 14.8688 22.1946 14.8688 22.6668C14.8688 23.1391 14.7104 23.5349 14.3938 23.8543C14.0771 24.1738 13.6848 24.3335 13.2167 24.3335ZM26.4334 24.3335C25.9653 24.3335 25.5729 24.1738 25.2563 23.8543C24.9396 23.5349 24.7813 23.1391 24.7813 22.6668C24.7813 22.1946 24.9396 21.7988 25.2563 21.4793C25.5729 21.1599 25.9653 21.0002 26.4334 21.0002C26.9015 21.0002 27.2939 21.1599 27.6105 21.4793C27.9272 21.7988 28.0855 22.1946 28.0855 22.6668C28.0855 23.1391 27.9272 23.5349 27.6105 23.8543C27.2939 24.1738 26.9015 24.3335 26.4334 24.3335ZM19.825 31.0002C19.357 31.0002 18.9646 30.8404 18.6479 30.521C18.3313 30.2016 18.173 29.8057 18.173 29.3335C18.173 28.8613 18.3313 28.4654 18.6479 28.146C18.9646 27.8266 19.357 27.6668 19.825 27.6668C20.2931 27.6668 20.6855 27.8266 21.0022 28.146C21.3188 28.4654 21.4771 28.8613 21.4771 29.3335C21.4771 29.8057 21.3188 30.2016 21.0022 30.521C20.6855 30.8404 20.2931 31.0002 19.825 31.0002ZM13.2167 31.0002C12.7486 31.0002 12.3562 30.8404 12.0396 30.521C11.7229 30.2016 11.5646 29.8057 11.5646 29.3335C11.5646 28.8613 11.7229 28.4654 12.0396 28.146C12.3562 27.8266 12.7486 27.6668 13.2167 27.6668C13.6848 27.6668 14.0771 27.8266 14.3938 28.146C14.7104 28.4654 14.8688 28.8613 14.8688 29.3335C14.8688 29.8057 14.7104 30.2016 14.3938 30.521C14.0771 30.8404 13.6848 31.0002 13.2167 31.0002ZM26.4334 31.0002C25.9653 31.0002 25.5729 30.8404 25.2563 30.521C24.9396 30.2016 24.7813 29.8057 24.7813 29.3335C24.7813 28.8613 24.9396 28.4654 25.2563 28.146C25.5729 27.8266 25.9653 27.6668 26.4334 27.6668C26.9015 27.6668 27.2939 27.8266 27.6105 28.146C27.9272 28.4654 28.0855 28.8613 28.0855 29.3335C28.0855 29.8057 27.9272 30.2016 27.6105 30.521C27.2939 30.8404 26.9015 31.0002 26.4334 31.0002Z" fill="#00FFFF"/>
<defs>
<filter id="filter0_f_222_46" x="-4" y="-3" width="47.6501" height="48" filterUnits="userSpaceOnUse" color-interpolation-filters="sRGB">
<feFlood flood-opacity="0" result="BackgroundImageFix"/>
<feBlend mode="normal" in="SourceGraphic" in2="BackgroundImageFix" result="shape"/>
<feGaussianBlur stdDeviation="2" result="effect1_foregroundBlur_222_46"/>
</filter>
</defs>
</svg>
