<?xml version="1.0" encoding="UTF-8"?>
<svg id="Livello_1" xmlns="http://www.w3.org/2000/svg" version="1.1" viewBox="0 0 141.73 141.73">
  <!-- Generator: Adobe Illustrator 29.0.1, SVG Export Plug-In . SVG Version: 2.1.0 Build 192)  -->
  <defs>
    <style>
      .st0 {
        fill: #fff;
      }
    </style>
  </defs>
  <path class="st0" d="M87.12,25.19h-43.67c-11.25,0-20.38,9.13-20.38,20.38v43.67c0,11.25,9.13,20.38,20.38,20.38h43.67c11.25,0,20.38-9.13,20.38-20.38v-43.67c0-11.25-9.13-20.38-20.38-20.38ZM100.22,87.79c0,8.04-6.52,14.56-14.56,14.56h-40.76c-8.04,0-14.56-6.52-14.56-14.56v-40.76c0-8.04,6.52-14.56,14.56-14.56h40.76c8.04,0,14.56,6.52,14.56,14.56v40.76Z"/>
  <path class="st0" d="M65.33,45.57c-12.05,0-21.83,9.78-21.83,21.83s9.78,21.83,21.83,21.83,21.83-9.78,21.83-21.83-9.78-21.83-21.83-21.83ZM65.33,81.96c-8.02,0-14.56-6.54-14.56-14.56s6.54-14.56,14.56-14.56,14.56,6.54,14.56,14.56-6.54,14.56-14.56,14.56Z"/>
  <circle class="st0" cx="88.62" cy="44.12" r="4.37"/>
</svg>