<svg width="36" height="38" viewBox="0 0 36 38" fill="none" xmlns="http://www.w3.org/2000/svg">
<g filter="url(#filter0_f_222_50)">
<path d="M18 19C18.825 19 19.5312 18.7062 20.1187 18.1187C20.7062 17.5312 21 16.825 21 16C21 15.175 20.7062 14.4687 20.1187 13.8812C19.5312 13.2937 18.825 13 18 13C17.175 13 16.4687 13.2937 15.8812 13.8812C15.2937 14.4687 15 15.175 15 16C15 16.825 15.2937 17.5312 15.8812 18.1187C16.4687 18.7062 17.175 19 18 19ZM18 30.025C21.05 27.225 23.3125 24.6812 24.7875 22.3937C26.2625 20.1062 27 18.075 27 16.3C27 13.575 26.1312 11.3437 24.3937 9.60625C22.6562 7.86875 20.525 7 18 7C15.475 7 13.3437 7.86875 11.6062 9.60625C9.86875 11.3437 9 13.575 9 16.3C9 18.075 9.7375 20.1062 11.2125 22.3937C12.6875 24.6812 14.95 27.225 18 30.025ZM18 34C13.975 30.575 10.9687 27.3937 8.98125 24.4562C6.99375 21.5187 6 18.8 6 16.3C6 12.55 7.20625 9.5625 9.61875 7.3375C12.0312 5.1125 14.825 4 18 4C21.175 4 23.9687 5.1125 26.3812 7.3375C28.7937 9.5625 30 12.55 30 16.3C30 18.8 29.0062 21.5187 27.0187 24.4562C25.0312 27.3937 22.025 30.575 18 34Z" fill="#F7F7F7"/>
</g>
<path d="M18 19C18.825 19 19.5312 18.7062 20.1187 18.1187C20.7062 17.5312 21 16.825 21 16C21 15.175 20.7062 14.4687 20.1187 13.8812C19.5312 13.2937 18.825 13 18 13C17.175 13 16.4687 13.2937 15.8812 13.8812C15.2937 14.4687 15 15.175 15 16C15 16.825 15.2937 17.5312 15.8812 18.1187C16.4687 18.7062 17.175 19 18 19ZM18 30.025C21.05 27.225 23.3125 24.6812 24.7875 22.3937C26.2625 20.1062 27 18.075 27 16.3C27 13.575 26.1312 11.3437 24.3937 9.60625C22.6562 7.86875 20.525 7 18 7C15.475 7 13.3437 7.86875 11.6062 9.60625C9.86875 11.3437 9 13.575 9 16.3C9 18.075 9.7375 20.1062 11.2125 22.3937C12.6875 24.6812 14.95 27.225 18 30.025ZM18 34C13.975 30.575 10.9687 27.3937 8.98125 24.4562C6.99375 21.5187 6 18.8 6 16.3C6 12.55 7.20625 9.5625 9.61875 7.3375C12.0312 5.1125 14.825 4 18 4C21.175 4 23.9687 5.1125 26.3812 7.3375C28.7937 9.5625 30 12.55 30 16.3C30 18.8 29.0062 21.5187 27.0187 24.4562C25.0312 27.3937 22.025 30.575 18 34Z" fill="#00FFFF"/>
<defs>
<filter id="filter0_f_222_50" x="-4" y="-3" width="44" height="44" filterUnits="userSpaceOnUse" color-interpolation-filters="sRGB">
<feFlood flood-opacity="0" result="BackgroundImageFix"/>
<feBlend mode="normal" in="SourceGraphic" in2="BackgroundImageFix" result="shape"/>
<feGaussianBlur stdDeviation="2" result="effect1_foregroundBlur_222_50"/>
</filter>
</defs>
</svg>
