<svg width="42" height="42" viewBox="0 0 42 42" fill="none" xmlns="http://www.w3.org/2000/svg">
<g filter="url(#filter0_f_219_104)">
<path d="M26.277 28.833L28.5899 26.4997L22.4772 20.333V12.6663H19.173V21.6663L26.277 28.833ZM20.8251 37.6663C18.5397 37.6663 16.392 37.2288 14.3819 36.3538C12.3719 35.4788 10.6234 34.2913 9.13656 32.7913C7.64968 31.2913 6.47257 29.5275 5.60522 27.4997C4.73787 25.4719 4.3042 23.3052 4.3042 20.9997C4.3042 18.6941 4.73787 16.5275 5.60522 14.4997C6.47257 12.4719 7.64968 10.708 9.13656 9.20801C10.6234 7.70801 12.3719 6.52051 14.3819 5.64551C16.392 4.77051 18.5397 4.33301 20.8251 4.33301C23.1105 4.33301 25.2582 4.77051 27.2682 5.64551C29.2783 6.52051 31.0267 7.70801 32.5136 9.20801C34.0005 10.708 35.1776 12.4719 36.045 14.4997C36.9123 16.5275 37.346 18.6941 37.346 20.9997C37.346 23.3052 36.9123 25.4719 36.045 27.4997C35.1776 29.5275 34.0005 31.2913 32.5136 32.7913C31.0267 34.2913 29.2783 35.4788 27.2682 36.3538C25.2582 37.2288 23.1105 37.6663 20.8251 37.6663ZM20.8251 34.333C24.4872 34.333 27.6055 33.0344 30.18 30.4372C32.7546 27.84 34.0418 24.6941 34.0418 20.9997C34.0418 17.3052 32.7546 14.1594 30.18 11.5622C27.6055 8.96495 24.4872 7.66634 20.8251 7.66634C17.163 7.66634 14.0446 8.96495 11.4701 11.5622C8.89563 14.1594 7.60838 17.3052 7.60838 20.9997C7.60838 24.6941 8.89563 27.84 11.4701 30.4372C14.0446 33.0344 17.163 34.333 20.8251 34.333Z" fill="#F7F7F7"/>
</g>
<path d="M26.277 28.833L28.5899 26.4997L22.4772 20.333V12.6663H19.173V21.6663L26.277 28.833ZM20.8251 37.6663C18.5397 37.6663 16.392 37.2288 14.3819 36.3538C12.3719 35.4788 10.6234 34.2913 9.13656 32.7913C7.64968 31.2913 6.47257 29.5275 5.60522 27.4997C4.73787 25.4719 4.3042 23.3052 4.3042 20.9997C4.3042 18.6941 4.73787 16.5275 5.60522 14.4997C6.47257 12.4719 7.64968 10.708 9.13656 9.20801C10.6234 7.70801 12.3719 6.52051 14.3819 5.64551C16.392 4.77051 18.5397 4.33301 20.8251 4.33301C23.1105 4.33301 25.2582 4.77051 27.2682 5.64551C29.2783 6.52051 31.0267 7.70801 32.5136 9.20801C34.0005 10.708 35.1776 12.4719 36.045 14.4997C36.9123 16.5275 37.346 18.6941 37.346 20.9997C37.346 23.3052 36.9123 25.4719 36.045 27.4997C35.1776 29.5275 34.0005 31.2913 32.5136 32.7913C31.0267 34.2913 29.2783 35.4788 27.2682 36.3538C25.2582 37.2288 23.1105 37.6663 20.8251 37.6663ZM20.8251 34.333C24.4872 34.333 27.6055 33.0344 30.18 30.4372C32.7546 27.84 34.0418 24.6941 34.0418 20.9997C34.0418 17.3052 32.7546 14.1594 30.18 11.5622C27.6055 8.96495 24.4872 7.66634 20.8251 7.66634C17.163 7.66634 14.0446 8.96495 11.4701 11.5622C8.89563 14.1594 7.60838 17.3052 7.60838 20.9997C7.60838 24.6941 8.89563 27.84 11.4701 30.4372C14.0446 33.0344 17.163 34.333 20.8251 34.333Z" fill="#00FFFF"/>
<defs>
<filter id="filter0_f_219_104" x="-3" y="-3" width="47.6501" height="48" filterUnits="userSpaceOnUse" color-interpolation-filters="sRGB">
<feFlood flood-opacity="0" result="BackgroundImageFix"/>
<feBlend mode="normal" in="SourceGraphic" in2="BackgroundImageFix" result="shape"/>
<feGaussianBlur stdDeviation="2" result="effect1_foregroundBlur_219_104"/>
</filter>
</defs>
</svg>
