<?xml version="1.0" encoding="UTF-8"?>
<svg id="Livello_2" xmlns="http://www.w3.org/2000/svg" xmlns:xlink="http://www.w3.org/1999/xlink" viewBox="0 0 320 320">
  <defs>
    <style>
      .cls-1 {
        fill: #fff;
      }

      .cls-2 {
        fill: none;
      }

      .cls-3 {
        clip-path: url(#clippath);
      }
    </style>
    <clipPath id="clippath">
      <rect class="cls-2" x="48.59" y="101.18" width="222.81" height="69.42"/>
    </clipPath>
  </defs>
  <g class="cls-3">
    <path class="cls-1" d="M178.03,119.32c1.09-2.04,1.63-4.43,1.4-6.97-.52-5.74-5.1-10.43-10.82-11.09-5.47-.63-10.32,2.34-12.52,6.83h0s-.05.12-.05.12c-.18.37-.34.75-.48,1.13l-17.83,43.94c-.4.94-1.81.75-1.71-.43l3.63-19.3c.49-5.12-3.53-9.56-8.68-9.56h-.13c-3.38,0-6.46,1.96-7.9,5.02l-11.55,24.4c-.44.94-1.87.49-1.68-.54l3.24-14.51c.57-3.15-1.86-6.06-5.06-6.06h-9.53v32.79c0,2.84,2.3,5.14,5.14,5.14h5.24c2.98,0,5.71-1.65,7.1-4.28l11.64-24.78c.46-.97,1.92-.46,1.67.59l-7.12,22.4c-.58,3.16,1.85,6.07,5.06,6.07h5.7c2.41,0,4.7-1.09,6.22-2.96l36.08-44.35,2.94-3.62h0Z"/>
    <path class="cls-1" d="M90.03,147.8c-.12-.07-.25-.13-.38-.18-2.88-1.18-8.21-1.82-13.63-2.13l-5.66-.23c-3.46-.08-6.57-.06-8.61,0-.54.03-1.01-.42-1.03-.97-.02-.55.42-1.01.97-1.03.06,0,6.25-.17,13.02.15,3.61.17,6.69.45,9.27.82,2.98.38,5.65.84,7.9,1.34l2.09-11.01c-7-1.75-16.78-2.79-22.32-2.79-15.71,0-23.05,3.72-23.05,12.7,0,3.98,1.09,7.24,4.19,9.39.1.03,2.91,2.28,14.52,2.95l8.34.31c2.67.04,5.03.01,6.68-.03.56-.03,1.01.42,1.03.97.02.55-.42,1.01-.97,1.03-.03,0-1.7.05-4.24.05-2.37,0-5.51-.04-8.77-.2-15.16-.74-18-3.46-18.34-3.35l-1.85,11.83c6.22,1.75,16,3.18,24.8,3.18,16.73,0,21.74-3.78,21.74-11.99,0-4.85-1.67-8.62-5.69-10.81"/>
    <polygon class="cls-1" points="160.77 143.7 160.77 170.31 173.54 170.31 173.54 134 168.66 134 160.77 143.7"/>
    <path class="cls-1" d="M210.11,134h-33.38v36.31h12.77v-6.92h20.61c7.99,0,14.37-3.94,14.37-15.49,0-10.86-6.38-13.89-14.37-13.89M208.5,151.14h-19.01v-4.9h19.01c1.65,0,2.74.37,2.74,2.45,0,1.86-1.09,2.45-2.74,2.45"/>
    <polygon class="cls-1" points="271.41 145.24 271.41 134.06 227.34 134.06 227.34 170.37 271.41 170.37 271.41 159.19 240.11 159.19 240.11 156.82 267.98 156.82 267.98 147.51 240.11 147.51 240.11 145.24 271.41 145.24"/>
  </g>
</svg>